<svg width="17" height="18" viewBox="0 0 17 18" fill="none" xmlns="http://www.w3.org/2000/svg">
<path d="M11.6875 7.04973L5.3125 3.15723" stroke="#291200" stroke-width="2" stroke-linecap="round" stroke-linejoin="round"/>
<path d="M14.875 12.0004V6.00041C14.8747 5.73737 14.8092 5.47902 14.6848 5.25129C14.5605 5.02355 14.3818 4.83444 14.1667 4.70291L9.20833 1.70291C8.99297 1.57126 8.74868 1.50195 8.5 1.50195C8.25132 1.50195 8.00703 1.57126 7.79167 1.70291L2.83333 4.70291C2.61819 4.83444 2.43949 5.02355 2.31516 5.25129C2.19083 5.47902 2.12525 5.73737 2.125 6.00041V12.0004C2.12525 12.2635 2.19083 12.5218 2.31516 12.7495C2.43949 12.9773 2.61819 13.1664 2.83333 13.2979L7.79167 16.2979C8.00703 16.4296 8.25132 16.4989 8.5 16.4989C8.74868 16.4989 8.99297 16.4296 9.20833 16.2979L14.1667 13.2979C14.3818 13.1664 14.5605 12.9773 14.6848 12.7495C14.8092 12.5218 14.8747 12.2635 14.875 12.0004Z" stroke="#291200" stroke-width="2" stroke-linecap="round" stroke-linejoin="round"/>
<path d="M2.31641 5.21973L8.50016 9.00723L14.6839 5.21973" stroke="#291200" stroke-width="2" stroke-linecap="round" stroke-linejoin="round"/>
<path d="M8.5 16.56V9" stroke="#291200" stroke-width="2" stroke-linecap="round" stroke-linejoin="round"/>
</svg>
